<svg xmlns="http://www.w3.org/2000/svg" viewBox="0 0 1088 1551">
	<path fill="none" stroke="#000" stroke-linecap="square" stroke-miterlimit="10" stroke-width="8.08" d="M811.5 1399.5h92" />
	<path fill="none" stroke="#000" stroke-linecap="square" stroke-miterlimit="10" stroke-width="8" d="M811.5 1423.5h56.63m-56.63 24h120m-152-448h36v38h-36z" />
	<circle cx="858.5" cy="1020.5" r="19" fill="none" stroke="#000" stroke-linecap="square" stroke-miterlimit="10" stroke-width="8.08" />
	<path fill="none" stroke="#000" stroke-linecap="square" stroke-miterlimit="10" stroke-width="8.08" d="M917.5 1004.5l-16 33h32l-16-33z" />
	<path fill="none" stroke="#000" stroke-linecap="square" stroke-miterlimit="10" stroke-width="8" d="M779.5 751.5h36v38h-36zm120 0h36v38h-36z" />
	<circle cx="858.5" cy="770.5" r="19" fill="none" stroke="#000" stroke-linecap="square" stroke-miterlimit="10" stroke-width="8.08" />
	<path fill="none" stroke="#000" stroke-linecap="square" stroke-miterlimit="10" stroke-width="8" d="M779.5 493.5h36v38h-36zm60 0h36v38h-36zm60 0h36v38h-36z" />
	<path fill="none" stroke="#000" stroke-linecap="square" stroke-miterlimit="10" stroke-width="8.08" d="M811.5 163.5h92m-92-24h92m-92-24h92" />
	<path d="M313.64 1444.07h-9.14l-20.16-42.12c.36 4.1.94 10.15.94 19.37v22.75h-6.41v-49.57h8.93l20.38 42.2c-.14-1.15-.94-9.07-.94-15.12v-27.08h6.41zm42.55-16.7H332c.65 8.78 4.75 12.17 10.22 12.17a16 16 0 0 0 9.86-3.31l2.88 4a20.68 20.68 0 0 1-13.25 4.75c-10.58 0-16.78-7.42-16.78-19.44 0-11.81 6-20.23 15.77-20.23 10.23 0 15.63 7.13 15.63 18.72 0 1.25-.07 2.47-.14 3.34zm-6.41-5.33c0-7.42-3-11.52-8.93-11.52-5 0-8.35 3.53-8.86 12h17.79zm52.2 22.03h-9l-6.62-32-6.84 32h-8.78l-8.86-37.95h6.62l6.84 33.34 7.49-33.34h7.42l7.13 33.34 6.91-33.34h6.34zm67.46-45.57l-3.74 4.39a14.57 14.57 0 0 0-9.58-3.67c-7.49 0-13.75 5-13.75 20 0 14.33 6 19.95 13.68 19.95 4.68 0 7.7-2.09 10.51-4.18l3.46 4.39c-2.66 2.81-7.49 5.54-14.19 5.54-12 0-20.74-9-20.74-25.71s9.36-25.63 20.59-25.63a19.55 19.55 0 0 1 13.76 4.92zm36.8.86l-3.74 4.14c-3.74-3-7.2-4.32-11.31-4.32-5 0-8.93 2.3-8.93 7.06 0 4.18 1.94 6.19 10.87 8.93 7.92 2.45 14.69 5.54 14.69 15 0 8.64-6.55 14.69-17.71 14.69-7.13 0-12.74-2.38-16.85-6.41l3.82-4.25c3.67 3.1 7.56 5 13 5 5.83 0 10.66-2.88 10.66-8.86 0-4.82-2.3-7-10.73-9.58-9.65-3-14.69-6.62-14.69-14.33s6.48-13 15.63-13c6.79.17 11.11 2.18 15.29 5.93zm38.52 0l-3.74 4.18c-3.74-3-7.2-4.32-11.3-4.32-5 0-8.93 2.3-8.93 7.06 0 4.18 1.95 6.19 10.87 8.93 7.92 2.45 14.69 5.54 14.69 15 0 8.64-6.55 14.69-17.71 14.69-7.13 0-12.75-2.38-16.85-6.41l3.82-4.25c3.67 3.1 7.56 5 13 5 5.83 0 10.66-2.88 10.66-8.86 0-4.82-2.3-7-10.73-9.58-9.65-3-14.69-6.62-14.69-14.33s6.48-13 15.63-13c6.78.13 11.1 2.14 15.28 5.89z" />
	<path fill="none" stroke="#000" stroke-linecap="square" stroke-miterlimit="10" stroke-width="4" d="M404.5 1314.45l11 11 11-11m-10.97-46.9l-.03 55.81" />
	<path fill="none" stroke="#dd3a0a" stroke-linecap="square" stroke-miterlimit="10" stroke-width="10" d="M174.5 1097.5h476v134h-476z" />
	<path d="M285.5 1143.43l-4.68 5.4a16.71 16.71 0 0 0-11.16-4.25c-4.46 0-7.7 2-7.7 5.91 0 3.6 1.94 5.18 10.22 7.78 8.71 2.74 14.76 6.34 14.76 15.7 0 8.93-7 15.27-18.87 15.27-7.92 0-13.83-2.81-17.93-6.84l5-5.47a18.67 18.67 0 0 0 12.75 5c5.33 0 9.15-2.59 9.15-7.42 0-4.18-2.09-6-9.86-8.42-10.44-3.24-15-7.42-15-15 0-8.28 7.13-13.75 16.92-13.75 7.22-.03 12.04 2.16 16.4 6.09zm31.06 42.91a16.65 16.65 0 0 1-9.58 2.88c-7.49-.07-11.45-4.32-11.45-12.46v-20.09h-6v-6.62h6v-8.42l9.22-1.08v9.5h8.86l-.94 6.63h-7.92v19.87c0 3.74 1.22 5.26 4 5.26a8.54 8.54 0 0 0 4.54-1.44zm27.8-36.84l-1.58 8.93a12.78 12.78 0 0 0-3.38-.43c-4.68 0-7 3.38-8.42 9.86v20.23h-9.22V1150h8l.86 7.49c1.8-5.47 5.47-8.5 9.94-8.5a13.23 13.23 0 0 1 3.8.51zm16.14-13.13a5.8 5.8 0 1 1-5.83-5.62 5.53 5.53 0 0 1 5.83 5.62zm-1.15 51.77h-9.22v-38.09h9.22zm42.15-27.57v27.58h-9.22v-26.14c0-4.75-1.8-6.12-4.68-6.12-3.31 0-5.76 2.23-8 5.76v26.5h-9.22v-38.09h8l.72 5c3-3.82 6.77-6.12 11.59-6.12 6.87.03 10.81 4.35 10.81 11.63zm43.87-8.5c-2.88 1-6.48 1.3-11 1.3 4.61 2.09 6.91 5 6.91 9.79 0 7.42-5.76 12.82-15.34 12.82a15.34 15.34 0 0 1-4.54-.58 3.46 3.46 0 0 0-1.58 2.81c0 1.37.79 2.67 4.61 2.67h5.83c8.42 0 13.9 4.54 13.9 10.8 0 7.63-6.55 12.17-19 12.17-13.54 0-17.35-4.32-17.35-12h8.28c0 3.82 1.66 5.47 9.22 5.47s9.58-2 9.58-5c0-2.81-2.23-4.54-6.48-4.54h-5.76c-7.63 0-10.87-3.38-10.87-7.35a8.6 8.6 0 0 1 4.46-7.06c-4.68-2.45-6.7-5.83-6.7-10.73 0-8.28 6.55-13.68 15.77-13.68 9 .22 13.18-1.8 17.79-4.25zm-26.57 10.43c0 4.61 2.52 7.49 6.77 7.49s6.77-2.74 6.77-7.56-2.3-7.2-6.91-7.2c-4.18.01-6.63 2.89-6.63 7.27zm42.48-26.13a5.8 5.8 0 1 1-5.83-5.62 5.53 5.53 0 0 1 5.83 5.62zm-1.15 51.77h-9.22v-38.09h9.22zm38.23-51.64l-2.81 6.12a18.91 18.91 0 0 0-8-1.8c-5 0-6.26 1.73-6.26 5.33v3.89h21.21v38.09h-9.22v-31.47h-12v31.47h-9.22v-31.47h-6v-6.62h6v-4c0-7 4.25-12.24 14.62-12.24a25.82 25.82 0 0 1 11.68 2.7zm46.23 35.44h-23.91c.72 7.78 4.32 10.3 9.36 10.3 3.38 0 6.19-1.08 9.51-3.38l3.82 5.26a21.9 21.9 0 0 1-14.11 5.11c-11.81 0-18.15-7.85-18.15-19.87 0-11.59 6.12-20.38 16.92-20.38s16.78 7.2 16.78 19.23c-.01 1.21-.15 2.73-.22 3.73zm-8.93-6.41c0-6.27-2.23-10-7.42-10-4.32 0-7.06 2.88-7.56 10.44h15zm40.24-16.03l-1.58 8.93a12.77 12.77 0 0 0-3.38-.43c-4.68 0-7 3.38-8.42 9.86v20.23h-9.22V1150h8l.87 7.49c1.8-5.47 5.47-8.5 9.94-8.5a13.23 13.23 0 0 1 3.79.51z" fill="#dd3a0a" />
	<path fill="none" stroke="#000" stroke-linecap="square" stroke-miterlimit="10" stroke-width="4" d="M404.5 1050.45l11 11 11-11m-10.97-46.9l-.03 55.81" />
	<path fill="none" stroke="#000" stroke-linecap="square" stroke-miterlimit="10" stroke-width="10" d="M184.5 833.5h476v134h-476z" />
	<path d="M332.29 888.97c0 11.38-8.28 16.06-19.23 16.06h-6.26v18.22h-6.84v-49.62h13c11.98 0 19.33 4.87 19.33 15.34zm-7.27.07c0-7.42-4.75-10.08-12.1-10.08h-6.12v20.67h6c7.32-.01 12.22-2.13 12.22-10.59zm16.05 26.71v-45.72l6.63-.79v46.37c0 2 .65 3 2.38 3a6.46 6.46 0 0 0 2.45-.43l1.73 4.61a11.13 11.13 0 0 1-5.26 1.3c-4.83.02-7.93-2.94-7.93-8.34zm49.68 7.49h-5.69l-.5-5.9c-2.88 4.61-6.41 6.77-11.81 6.77-6.62 0-10.58-4.18-10.58-11.59v-27.23h6.63v26.5c0 5.19 1.73 7.13 5.83 7.13s7.2-2.74 9.5-6.55v-27.08h6.63zm44.28-36.22c-3.17 1-6.77 1.15-11.09 1.15 4.46 2 6.7 5.18 6.7 9.58 0 7.49-5.4 12.89-14.47 12.89a15.35 15.35 0 0 1-4.82-.72 4.57 4.57 0 0 0-1.87 3.53c0 1.73 1.08 3.1 5 3.1h6c7.78 0 13 4.46 13 10.51 0 7.35-6 11.52-17.79 11.52-12.39 0-16.27-3.82-16.27-11.52h6c0 4.32 1.94 6.34 10.3 6.34s11.09-2.09 11.09-5.9c0-3.6-2.88-5.4-7.63-5.4h-6c-6.77 0-9.79-3.38-9.79-7.2 0-2.45 1.44-4.9 4.18-6.7-4.39-2.3-6.41-5.62-6.41-10.51 0-7.78 6.26-13.25 14.62-13.25 9.43.22 12.89-1.37 17.35-3.38zm-27.15 10.66c0 5 2.81 8.57 8 8.57s8-3.17 8-8.64-2.74-8.42-8.14-8.42c-5.12-.01-7.86 3.52-7.86 8.49zm41.91-26.07a4.65 4.65 0 1 1-4.68-4.54 4.41 4.41 0 0 1 4.68 4.54zm-1.29 51.63h-6.62v-37.95h6.62zm42.55-27.22v27.22h-6.62v-26.28c0-5.69-2.3-7.35-6-7.35-4.25 0-7.13 2.66-9.65 6.7v26.93h-6.62v-37.95h5.69l.58 5.62a13.76 13.76 0 0 1 11.59-6.48c6.99 0 11.03 4.39 11.03 11.59zm56.45-8.52c0 9-5.76 15.41-20.52 30.17h21.67l-.79 5.54h-28.45v-5.26c17-17.71 21.17-22.32 21.17-30.17 0-5-3.24-8-7.92-8-4 0-6.7 1.58-9.79 5.26l-4.46-3.46c3.89-4.82 8.57-7.27 14.62-7.27 8.85.04 14.47 5.73 14.47 13.19z" />
	<path fill="none" stroke="#000" stroke-linecap="square" stroke-miterlimit="10" stroke-width="4" d="M404.5 786.45l11 11 11-11m-10.97-46.9l-.03 55.81" />
	<path fill="none" stroke="#000" stroke-linecap="square" stroke-miterlimit="10" stroke-width="10" d="M174.5 569.5h476v134h-476z" />
	<path d="M324.5 624.97c0 11.38-8.28 16.06-19.23 16.06h-6.26v18.22h-6.84v-49.62h13c12.01 0 19.33 4.87 19.33 15.34zm-7.27.07c0-7.42-4.75-10.08-12.1-10.08h-6.12v20.67h6c7.34-.01 12.24-2.13 12.24-10.59zm16.07 26.71v-45.72l6.62-.79v46.37c0 2 .65 3 2.38 3a6.46 6.46 0 0 0 2.45-.43l1.73 4.61a11.13 11.13 0 0 1-5.26 1.3c-4.82.02-7.92-2.94-7.92-8.34zm49.68 7.49h-5.68l-.5-5.9c-2.88 4.61-6.41 6.77-11.81 6.77-6.62 0-10.58-4.18-10.58-11.59v-27.23h6.62v26.5c0 5.18 1.73 7.13 5.83 7.13s7.2-2.74 9.5-6.55v-27.08h6.62zm44.28-36.22c-3.17 1-6.77 1.15-11.09 1.15 4.46 2 6.7 5.18 6.7 9.58 0 7.49-5.4 12.89-14.47 12.89a15.36 15.36 0 0 1-4.82-.72 4.57 4.57 0 0 0-1.87 3.53c0 1.73 1.08 3.1 5 3.1h6c7.78 0 13 4.46 13 10.51 0 7.34-6 11.52-17.79 11.52-12.39 0-16.27-3.82-16.27-11.52h6c0 4.32 1.94 6.34 10.3 6.34s11.09-2.09 11.09-5.9c0-3.6-2.88-5.4-7.63-5.4h-6c-6.77 0-9.79-3.38-9.79-7.2 0-2.45 1.44-4.9 4.18-6.7-4.39-2.3-6.41-5.62-6.41-10.51 0-7.78 6.26-13.25 14.62-13.25 9.43.22 12.89-1.37 17.35-3.38zm-27.15 10.66c0 5 2.81 8.57 8 8.57s8-3.17 8-8.64-2.74-8.42-8.14-8.42c-5.12-.01-7.85 3.52-7.85 8.49zm41.91-26.07a4.65 4.65 0 1 1-4.68-4.54 4.41 4.41 0 0 1 4.68 4.54zm-1.3 51.63h-6.62v-37.95h6.62zm42.56-27.22v27.22h-6.62v-26.28c0-5.69-2.3-7.34-6-7.34-4.25 0-7.13 2.66-9.65 6.7v26.93h-6.61v-37.96h5.69l.58 5.62a13.76 13.76 0 0 1 11.59-6.48c6.99 0 11.02 4.39 11.02 11.59zm48.81 27.22h-6.59v-41.11l-11.23 6.84-2.88-4.68 14.91-9.22h5.83z" />
	<path fill="none" stroke="#000" stroke-linecap="square" stroke-miterlimit="10" stroke-width="4" d="M404.5 522.45l11 11 11-11m-10.97-46.9l-.03 55.81" />
	<path fill="none" stroke="#dd3a0a" stroke-linecap="square" stroke-miterlimit="10" stroke-width="10" d="M174.5 305.5h476v134h-476z" />
	<path d="M348.32 364.27c0 11.45-8.28 16.56-19.51 16.56h-5.83v17.35h-9.48v-49.75h14.69c12.49 0 20.13 5.07 20.13 15.84zm-9.94 0c0-6.26-3.82-8.86-10.3-8.86h-5.11v18.29h5.11c6.34 0 10.3-2.2 10.3-9.43zM384.6 393l-1.94 6.12c-4.18-.36-6.91-1.8-8.42-5.54-2.66 4-6.84 5.69-11.38 5.69-7.63 0-12.31-4.82-12.31-11.74 0-8.28 6.26-12.75 17.35-12.75h4.75v-2.16c0-5-2.23-6.62-7.13-6.62a34 34 0 0 0-10.08 2l-2.16-6.27a39.31 39.31 0 0 1 13.83-2.74c10.15 0 14.62 4.68 14.62 13.11v16c-.01 3.1 1 4.18 2.87 4.9zm-12-5.11v-7.71h-3.82c-6 0-8.93 2.16-8.93 6.63 0 3.67 1.87 5.76 5.4 5.76 3.25 0 5.67-1.66 7.4-4.68zm42.9-28.3l-1.59 8.91a12.78 12.78 0 0 0-3.38-.43c-4.68 0-7 3.38-8.42 9.86v20.23h-9.22v-38.07h8l.86 7.49c1.8-5.47 5.47-8.5 9.94-8.5a13.23 13.23 0 0 1 3.81.51zm30.59 3.91l-3.6 5.4a17.37 17.37 0 0 0-9.58-3.1c-3.67 0-5.76 1.51-5.76 3.82 0 2.52 1.51 3.67 8 5.47 7.78 2.09 12.17 5.26 12.17 12 0 7.92-7.34 12.1-16.06 12.1a22.29 22.29 0 0 1-15.19-5.4l4.61-5.18a17.21 17.21 0 0 0 10.37 3.74c4.1 0 6.77-1.73 6.77-4.61 0-3.17-1.51-4.18-8.64-6.19-7.85-2.16-11.3-5.9-11.3-11.52 0-6.34 5.83-11.09 14.69-11.09a21.43 21.43 0 0 1 13.52 4.56zm39.74 18.48h-23.9c.72 7.78 4.32 10.3 9.36 10.3 3.38 0 6.19-1.08 9.51-3.38l3.82 5.26a21.9 21.9 0 0 1-14.12 5.1c-11.81 0-18.15-7.85-18.15-19.87 0-11.59 6.12-20.38 16.92-20.38s16.78 7.2 16.78 19.23c0 1.26-.14 2.73-.22 3.74zm-8.93-6.41c0-6.27-2.23-10-7.42-10-4.32 0-7.06 2.88-7.56 10.44h15zm40.25-15.98l-1.58 8.91a12.78 12.78 0 0 0-3.38-.43c-4.68 0-7 3.38-8.43 9.86v20.23h-9.26v-38.07h8l.86 7.49c1.8-5.47 5.47-8.5 9.94-8.5a13.23 13.23 0 0 1 3.85.51z" fill="#dd3a0a" />
	<path fill="none" stroke="#000" stroke-linecap="square" stroke-miterlimit="10" stroke-width="4" d="M404.5 258.5l11 11 11-11m-10.97-46.91l-.03 55.82" />
	<path d="M389.7 116.56l-3.74 4.39a14.57 14.57 0 0 0-9.58-3.67c-7.49 0-13.75 5-13.75 20 0 14.33 6 19.95 13.68 19.95 4.68 0 7.7-2.09 10.51-4.18l3.46 4.39c-2.66 2.81-7.49 5.54-14.19 5.54-12 0-20.74-9-20.74-25.71s9.36-25.63 20.59-25.63a19.55 19.55 0 0 1 13.76 4.92zm36.8.86l-3.74 4.18c-3.74-3-7.2-4.32-11.31-4.32-5 0-8.93 2.3-8.93 7.06 0 4.18 1.94 6.19 10.87 8.93 7.92 2.45 14.69 5.54 14.69 15 0 8.64-6.55 14.69-17.71 14.69-7.13 0-12.75-2.38-16.85-6.41l3.82-4.25c3.67 3.1 7.56 5 13 5 5.83 0 10.66-2.88 10.66-8.86 0-4.82-2.3-7-10.73-9.58-9.65-3-14.69-6.62-14.69-14.33s6.48-13 15.63-13c6.79.13 11.11 2.15 15.29 5.89zm38.52 0l-3.74 4.18c-3.74-3-7.2-4.32-11.31-4.32-5 0-8.93 2.3-8.93 7.06 0 4.18 1.94 6.19 10.87 8.93 7.92 2.45 14.69 5.54 14.69 15 0 8.64-6.55 14.69-17.71 14.69-7.13 0-12.75-2.38-16.85-6.41l3.82-4.25c3.67 3.1 7.56 5 13 5 5.83 0 10.66-2.88 10.66-8.86 0-4.82-2.3-7-10.73-9.58-9.65-3-14.69-6.62-14.69-14.33s6.48-13 15.63-13c6.77.13 11.11 2.15 15.29 5.89z" />
</svg>
