<svg id="Layer_1" data-name="Layer 1" xmlns="http://www.w3.org/2000/svg" viewBox="0 0 615 149"><defs><style>.cls-1{fill:#eee; } <svg id="Layer_1" data-name="Layer 1" xmlns="http://www.w3.org/2000/svg" viewBox="0 0 615 149"><defs><style>.cls-1{fill:#eee;}</style></defs><title>Sorbet</title><path class="cls-1" d="M63,64.54C48.08,59.77,34,55.22,34,42c0-11.26,9.74-17.11,20.14-17.11,8.07,0,20.3,3.75,27.92,12.47.42-.47,16.69-18.1,16.69-18.1C88.36,7.15,71.46,0,54.36,0,32.27,0,5.2,11.91,5.2,43.1c0,29.67,24.47,38.77,44.4,45.48,13.86,4.77,25.77,8.88,25.77,19.49,0,9.53-9.53,14.94-21.22,14.94a49.94,49.94,0,0,1-36-16.38C17.52,107.27,0,126.26,0,126.26,13.86,141.42,34.22,149,52.84,149c26.42,0,51.76-14.94,51.76-44C104.6,78,82.51,70.82,63,64.54ZM262,55a22.41,22.41,0,0,0-1.34,2.64V44.18h-27.5V146.83h27.72V92.47c0-1,.1-1.88.15-2.81,1.39-13.12,12.54-24.09,31.61-17.84L292.75,44C273.36,40.38,264.93,50.07,262,55Zm216.28-13.2c-26.2-.56-52.6,18.44-52.6,54,0,35.95,26.85,53.27,54.14,53.27,18,0,34-7.36,45-21.22L508.18,111.1c-6.93,9.09-16.89,13.64-28.16,13.64-11,0-23.82-4.55-26.2-18.62h71a107.33,107.33,0,0,0,.87-13C525.72,60.41,503.28,42.31,478.26,41.77ZM453.77,85.11C455.48,73.57,464.11,65,476.63,65s21.16,8.6,22.87,20.14ZM605,121.28A26.75,26.75,0,0,1,591,125.61c-7.58,0-13.86-4.11-13.86-13.86V68h27.72V44.18H577.1V18H549.38v26.2H527.94V68h21.44v44.18c0,25.12,16.89,36.6,35.95,36.6a56,56,0,0,0,29.67-9.1Zm-238.7-79.7c-13.86,0-27.94,5.85-34.43,16.46V4.33H304.18v142.5h27.5V135.57c7.8,8.23,18,13.43,32.27,13.43,26.2,0,52-18,52-53.92C415.93,59.56,390.59,41.58,366.33,41.58Zm-6.06,84.24c-15.81,0-28.16-10.4-28.16-30.32,0-22.09,14.94-30.75,29-30.75,15.81,0,27.29,10.83,27.29,30.1S376.95,125.82,360.27,125.82Zm-140.93-40h-2.94a30,30,0,0,0-19.92-28.22A29.5,29.5,0,0,0,138,53.38,30,30,0,0,0,117.6,81.77a29.4,29.4,0,0,0,.29,4.1h-3.23a1.56,1.56,0,0,0-1.55,1.58c.41,19.25,6.31,35.2,17.13,46.23,9.68,9.87,22.74,14.77,36.77,14.78s27.08-4.91,36.77-14.78c10.82-11,16.72-27,17.13-46.23A1.56,1.56,0,0,0,219.35,85.87Zm-18.56,0H172.09a14.35,14.35,0,0,1,28.69,0ZM167,44.7a13.89,13.89,0,0,1,13.7,11.77,29.8,29.8,0,0,0-11.32,4.79,30,30,0,0,0-14.9-8.64A13.89,13.89,0,0,1,167,44.7ZM147.57,67.42a14.33,14.33,0,0,1,11.63,6,29.78,29.78,0,0,0-2.73,12.47H133.85a13.93,13.93,0,0,1-.63-4.1A14.36,14.36,0,0,1,147.57,67.42ZM202.77,102C200,120.33,185.61,133,167,133s-32.8-12.47-35.78-31l-.09-.64h71.73Z"></path></svg>}</style></defs><title>Sorbet</title><path class="cls-1" d="M63,64.54C48.08,59.77,34,55.22,34,42c0-11.26,9.74-17.11,20.14-17.11,8.07,0,20.3,3.75,27.92,12.47.42-.47,16.69-18.1,16.69-18.1C88.36,7.15,71.46,0,54.36,0,32.27,0,5.2,11.91,5.2,43.1c0,29.67,24.47,38.77,44.4,45.48,13.86,4.77,25.77,8.88,25.77,19.49,0,9.53-9.53,14.94-21.22,14.94a49.94,49.94,0,0,1-36-16.38C17.52,107.27,0,126.26,0,126.26,13.86,141.42,34.22,149,52.84,149c26.42,0,51.76-14.94,51.76-44C104.6,78,82.51,70.82,63,64.54ZM262,55a22.41,22.41,0,0,0-1.34,2.64V44.18h-27.5V146.83h27.72V92.47c0-1,.1-1.88.15-2.81,1.39-13.12,12.54-24.09,31.61-17.84L292.75,44C273.36,40.38,264.93,50.07,262,55Zm216.28-13.2c-26.2-.56-52.6,18.44-52.6,54,0,35.95,26.85,53.27,54.14,53.27,18,0,34-7.36,45-21.22L508.18,111.1c-6.93,9.09-16.89,13.64-28.16,13.64-11,0-23.82-4.55-26.2-18.62h71a107.33,107.33,0,0,0,.87-13C525.72,60.41,503.28,42.31,478.26,41.77ZM453.77,85.11C455.48,73.57,464.11,65,476.63,65s21.16,8.6,22.87,20.14ZM605,121.28A26.75,26.75,0,0,1,591,125.61c-7.58,0-13.86-4.11-13.86-13.86V68h27.72V44.18H577.1V18H549.38v26.2H527.94V68h21.44v44.18c0,25.12,16.89,36.6,35.95,36.6a56,56,0,0,0,29.67-9.1Zm-238.7-79.7c-13.86,0-27.94,5.85-34.43,16.46V4.33H304.18v142.5h27.5V135.57c7.8,8.23,18,13.43,32.27,13.43,26.2,0,52-18,52-53.92C415.93,59.56,390.59,41.58,366.33,41.58Zm-6.06,84.24c-15.81,0-28.16-10.4-28.16-30.32,0-22.09,14.94-30.75,29-30.75,15.81,0,27.29,10.83,27.29,30.1S376.95,125.82,360.27,125.82Zm-140.93-40h-2.94a30,30,0,0,0-19.92-28.22A29.5,29.5,0,0,0,138,53.38,30,30,0,0,0,117.6,81.77a29.4,29.4,0,0,0,.29,4.1h-3.23a1.56,1.56,0,0,0-1.55,1.58c.41,19.25,6.31,35.2,17.13,46.23,9.68,9.87,22.74,14.77,36.77,14.78s27.08-4.91,36.77-14.78c10.82-11,16.72-27,17.13-46.23A1.56,1.56,0,0,0,219.35,85.87Zm-18.56,0H172.09a14.35,14.35,0,0,1,28.69,0ZM167,44.7a13.89,13.89,0,0,1,13.7,11.77,29.8,29.8,0,0,0-11.32,4.79,30,30,0,0,0-14.9-8.64A13.89,13.89,0,0,1,167,44.7ZM147.57,67.42a14.33,14.33,0,0,1,11.63,6,29.78,29.78,0,0,0-2.73,12.47H133.85a13.93,13.93,0,0,1-.63-4.1A14.36,14.36,0,0,1,147.57,67.42ZM202.77,102C200,120.33,185.61,133,167,133s-32.8-12.47-35.78-31l-.09-.64h71.73Z"></path></svg>